# xmcd
#
# Track frame offsets: 
#        150
#        12630
#        26989
#        40485
#        53642
#        67775
#        77263
#        88564
#        99165
#        113164
#        125859
#        140858
#        156335
#        171482
#        183348
#        196429
#        206191
#        214967
#        227820
#        238433
#        250142
#        262253
#        274594
#        288615
#
# Disc length: 3995 seconds
#
# Revision: 0
# Processed by: cddbd v1.5.2PL0 Copyright (c) Steve Scherf et al.
# Submitted via: ExactAudioCopyFreeDBPlugin 1.0
#
DISCID=770f9918
DTITLE=Frémeaux and Associés - Electric Guitar Story 1935-1962 (Disc1)
DYEAR=2014
DGENRE=Blues
TTITLE0=Milton Brown And His Musical Brownies - Some Of These Days (1
TTITLE0=935)
TTITLE1=Rpappy O'daniel And His Hillbilly Boys - Ida Sweet As Apple Ci
TTITLE1=de (1936)
TTITLE2=Derwood Brown And His Musical Brownies - Rose Room  (1937)
TTITLE3=Big Bill Bronzy - It's Low Down Dirty Shame (1938)
TTITLE4=The Kansas City Five - Laughing At Life  (1938)
TTITLE5=Bob Willis And His Texas Playboys - My Window Faces South  (19
TTITLE5=38)
TTITLE6=Sidney Bechet - Jungle Drums  (1938)
TTITLE7=Bob Willis And His Texas Playboys - Liza Pull Down The Shades 
TTITLE7=(1938)
TTITLE8=Andy Kirk And His Cloud Of Joy  - Floyd's Guitar Blues (1939)
TTITLE9=Benny Goodman Sextet - Rose Room  (1939)
TTITLE10=Clarence Profit Trio - Hot And Bothered  (1940)
TTITLE11=Charlie Christian - Swing To Bop  (1941)
TTITLE12=T-Bone Walker - I Got A Break Baby  (1942)
TTITLE13=Les Paul - Blue Skies   (1944)
TTITLE14=Louis Jordan And His Tympani Five - Ain't That Just Like A Wo
TTITLE14=man  (1946)
TTITLE15=Bob Willis And His Texas Playboys  - Sweet Jennie Lee (1946)
TTITLE16=George Barnes - I Can't Give Anything But Love  (1946)
TTITLE17=Arthur Grudup  - I Don't Know It (1946)
TTITLE18=Alvino Rey And His Orchestra - Bumble Boogie  (1946)
TTITLE19=Albennie Jones, Sam Price And His Trio  - Papa Tree Top Blue
TTITLE19=s (1947)
TTITLE20=Lonnie Johnson - Happy New Year Darling (1947)
TTITLE21=Sister Katy Marie - This Train  (1947)
TTITLE22=Lightin' Hopkins - Untrue Blues (1949)
TTITLE23=Lennis Tristano - Intuition  (1949)
EXTD=
EXTT0=
EXTT1=
EXTT2=
EXTT3=
EXTT4=
EXTT5=
EXTT6=
EXTT7=
EXTT8=
EXTT9=
EXTT10=
EXTT11=
EXTT12=
EXTT13=
EXTT14=
EXTT15=
EXTT16=
EXTT17=
EXTT18=
EXTT19=
EXTT20=
EXTT21=
EXTT22=
EXTT23=
PLAYORDER=
